<svg width="18" height="17" viewBox="0 0 18 17" fill="none" xmlns="http://www.w3.org/2000/svg">
<path d="M13.5 15.5832H3C2.60218 15.5832 2.22064 15.4339 1.93934 15.1682C1.65804 14.9026 1.5 14.5422 1.5 14.1665V4.24984M16.5 9.20817L15.528 8.29017C15.189 7.97009 14.7293 7.79027 14.25 7.79027C13.7707 7.79027 13.311 7.97009 12.972 8.29017L8.25 12.7498M10.5 5.6665C10.5 6.44891 9.82843 7.08317 9 7.08317C8.17157 7.08317 7.5 6.44891 7.5 5.6665C7.5 4.8841 8.17157 4.24984 9 4.24984C9.82843 4.24984 10.5 4.8841 10.5 5.6665ZM6 1.4165H15C15.8284 1.4165 16.5 2.05077 16.5 2.83317V11.3332C16.5 12.1156 15.8284 12.7498 15 12.7498H6C5.17157 12.7498 4.5 12.1156 4.5 11.3332V2.83317C4.5 2.05077 5.17157 1.4165 6 1.4165Z" stroke="#B77FFF" stroke-linecap="round" stroke-linejoin="round"/>
</svg>
