<svg width="21" height="21" viewBox="0 0 21 21" fill="none" xmlns="http://www.w3.org/2000/svg">
<path d="M10.7581 7.88771C10.2195 7.83452 9.67764 7.9491 9.20669 8.21577C8.73574 8.48243 8.35873 8.88814 8.12727 9.37736C7.89581 9.86657 7.82122 10.4154 7.9137 10.9486C8.00619 11.4819 8.26124 11.9735 8.64393 12.3562C9.02662 12.7389 9.51824 12.9939 10.0515 13.0864C10.5847 13.1789 11.1335 13.1043 11.6227 12.8728C12.1119 12.6414 12.5177 12.2644 12.7843 11.7934C13.051 11.3225 13.1656 10.7806 13.1124 10.242C13.0517 9.63825 12.7842 9.07402 12.3551 8.64495C11.9261 8.21588 11.3618 7.94836 10.7581 7.88771ZM17.0786 10.5C17.0769 10.7853 17.0559 11.0702 17.0158 11.3527L18.8702 12.8071C18.9509 12.8741 19.0053 12.9674 19.0237 13.0707C19.0421 13.174 19.0233 13.2804 18.9706 13.3711L17.2164 16.4062C17.1631 16.4961 17.0799 16.5642 16.9813 16.5987C16.8827 16.6331 16.7751 16.6316 16.6775 16.5945L14.8359 15.8529C14.7343 15.8125 14.6243 15.7979 14.5157 15.8104C14.4071 15.823 14.3033 15.8622 14.2136 15.9247C13.9326 16.1183 13.6372 16.2902 13.3302 16.4391C13.2336 16.486 13.1501 16.556 13.087 16.6428C13.0239 16.7296 12.9832 16.8307 12.9684 16.937L12.6924 18.9012C12.6743 19.005 12.6207 19.0992 12.5408 19.1678C12.4609 19.2364 12.3596 19.2751 12.2543 19.2773H8.74586C8.64231 19.2756 8.54246 19.2385 8.46276 19.1724C8.38306 19.1063 8.32826 19.015 8.3074 18.9135L8.03177 16.9522C8.0163 16.8447 7.9745 16.7427 7.9101 16.6552C7.8457 16.5678 7.76069 16.4976 7.66263 16.451C7.35592 16.3029 7.06158 16.1305 6.78244 15.9354C6.69306 15.8732 6.58962 15.8342 6.48143 15.822C6.37324 15.8097 6.2637 15.8246 6.16269 15.8653L4.3215 16.6064C4.22393 16.6436 4.11637 16.6451 4.01778 16.6107C3.91919 16.5764 3.83589 16.5083 3.78256 16.4186L2.02832 13.3834C1.97558 13.2927 1.95673 13.1863 1.97513 13.083C1.99353 12.9797 2.04799 12.8863 2.12881 12.8194L3.69601 11.589C3.78187 11.5208 3.84935 11.4323 3.89233 11.3314C3.9353 11.2306 3.95241 11.1206 3.94211 11.0115C3.92734 10.8404 3.91832 10.6698 3.91832 10.4988C3.91832 10.3277 3.92693 10.1596 3.94211 9.99223C3.95129 9.88375 3.93334 9.7747 3.88988 9.67489C3.84642 9.57507 3.77881 9.48764 3.69314 9.42047L2.12675 8.19C2.04725 8.12277 1.99394 8.02971 1.97617 7.92712C1.9584 7.82453 1.97729 7.71896 2.02955 7.62891L3.78379 4.59375C3.83706 4.50392 3.92033 4.43578 4.01893 4.40134C4.11752 4.3669 4.22511 4.36837 4.32273 4.40549L6.16433 5.14705C6.26589 5.18749 6.37589 5.2021 6.48448 5.18957C6.59307 5.17704 6.69686 5.13777 6.78654 5.07527C7.0676 4.88173 7.36294 4.70979 7.67002 4.56094C7.76656 4.51402 7.85006 4.44404 7.91315 4.3572C7.97624 4.27036 8.01698 4.16932 8.03177 4.06301L8.30781 2.09877C8.32594 1.99503 8.37953 1.90081 8.45943 1.83221C8.53933 1.76361 8.64057 1.72489 8.74586 1.72266H12.2543C12.3579 1.72445 12.4577 1.76146 12.5374 1.82759C12.6171 1.89372 12.6719 1.98503 12.6928 2.08646L12.9684 4.04783C12.9839 4.15532 13.0257 4.25732 13.0901 4.34476C13.1545 4.4322 13.2395 4.50237 13.3376 4.54904C13.6443 4.69709 13.9386 4.8695 14.2178 5.06461C14.3071 5.12679 14.4106 5.16576 14.5188 5.17801C14.6269 5.19025 14.7365 5.17538 14.8375 5.13475L16.6787 4.39359C16.7763 4.35644 16.8838 4.35491 16.9824 4.38927C17.081 4.42364 17.1643 4.49169 17.2176 4.58145L18.9719 7.6166C19.0246 7.70728 19.0435 7.81374 19.0251 7.91701C19.0067 8.02029 18.9522 8.11368 18.8714 8.18057L17.3042 9.41104C17.2179 9.47897 17.1501 9.56739 17.1067 9.66826C17.0634 9.76912 17.046 9.87922 17.056 9.98853C17.0696 10.1583 17.0786 10.329 17.0786 10.5Z" stroke="#C2ADEB" stroke-linecap="round" stroke-linejoin="round"/>
</svg>
