<svg width="19" height="20" viewBox="0 0 19 20" fill="none" xmlns="http://www.w3.org/2000/svg">
<g clip-path="url(#clip0_609_4652)">
<path d="M9.62253 4.77979C6.84742 4.77979 4.00075 6.46626 1.75973 9.83922C1.69577 9.93656 1.66071 10.0516 1.659 10.1699C1.65729 10.2881 1.689 10.4042 1.75012 10.5036C3.47201 13.3337 6.28058 15.5469 9.62253 15.5469C12.9282 15.5469 15.7944 13.327 17.5195 10.4905C17.5792 10.3931 17.6109 10.2797 17.6109 10.1639C17.6109 10.0481 17.5792 9.93474 17.5195 9.83735C15.7905 7.03341 12.9032 4.77979 9.62253 4.77979Z" stroke="#FF04B4" stroke-linecap="round" stroke-linejoin="round"/>
<path d="M9.63458 13.1546C11.2077 13.1546 12.483 11.8155 12.483 10.1637C12.483 8.51191 11.2077 7.17285 9.63458 7.17285C8.06143 7.17285 6.78613 8.51191 6.78613 10.1637C6.78613 11.8155 8.06143 13.1546 9.63458 13.1546Z" stroke="#FF04B4" stroke-miterlimit="10"/>
</g>
<defs>
<clipPath id="clip0_609_4652">
<rect width="18.2301" height="19.1416" fill="white" transform="translate(0.519531 0.592773)"/>
</clipPath>
</defs>
</svg>
