<svg width="20" height="20" viewBox="0 0 20 20" fill="none" xmlns="http://www.w3.org/2000/svg">
<path d="M19.252 17.5533L14.9761 13.2775C16.0056 11.907 16.5613 10.2389 16.5594 8.52494C16.5594 4.14687 12.9975 0.584961 8.61943 0.584961C4.24135 0.584961 0.679443 4.14687 0.679443 8.52494C0.679443 12.903 4.24135 16.4649 8.61943 16.4649C10.3334 16.4668 12.0015 15.9111 13.372 14.8817L17.6478 19.1575C17.8642 19.351 18.1465 19.4542 18.4367 19.4461C18.7269 19.438 19.003 19.3191 19.2083 19.1138C19.4136 18.9085 19.5325 18.6325 19.5406 18.3423C19.5487 18.0521 19.4454 17.7698 19.252 17.5533ZM2.94801 8.52494C2.94801 7.40324 3.28063 6.30673 3.90382 5.37407C4.527 4.44141 5.41275 3.71449 6.44907 3.28524C7.48538 2.85598 8.62572 2.74367 9.72586 2.9625C10.826 3.18134 11.8366 3.72148 12.6297 4.51465C13.4229 5.30781 13.963 6.31836 14.1819 7.41851C14.4007 8.51865 14.2884 9.65898 13.8591 10.6953C13.4299 11.7316 12.703 12.6174 11.7703 13.2406C10.8376 13.8637 9.74113 14.1964 8.61943 14.1964C7.11583 14.1946 5.67433 13.5965 4.61112 12.5332C3.54792 11.47 2.94981 10.0285 2.94801 8.52494Z" fill="white"/>
</svg>
