<svg width="18" height="18" viewBox="0 0 18 18" fill="none" xmlns="http://www.w3.org/2000/svg">
<path d="M2.8125 7.45312V15.75C2.8125 15.8992 2.87176 16.0423 2.97725 16.1477C3.08274 16.2532 3.22582 16.3125 3.375 16.3125H6.75V11.5312C6.75 11.3075 6.83889 11.0929 6.99713 10.9346C7.15536 10.7764 7.36997 10.6875 7.59375 10.6875H10.4062C10.63 10.6875 10.8446 10.7764 11.0029 10.9346C11.1611 11.0929 11.25 11.3075 11.25 11.5312V16.3125H14.625C14.7742 16.3125 14.9173 16.2532 15.0227 16.1477C15.1282 16.0423 15.1875 15.8992 15.1875 15.75V7.45312" stroke="#C2ADEB" stroke-linecap="round" stroke-linejoin="round"/>
<path d="M16.875 8.99987L9.38285 1.828C9.20707 1.64237 8.79609 1.64026 8.61715 1.828L1.125 8.99987M14.0625 6.29284V2.24987H12.375V4.67565" stroke="#C2ADEB" stroke-linecap="round" stroke-linejoin="round"/>
</svg>
