<svg width="20" height="20" viewBox="0 0 20 20" fill="none" xmlns="http://www.w3.org/2000/svg">
<path d="M4.0625 6.25C3.62985 6.25 3.20692 6.12171 2.84719 5.88134C2.48746 5.64098 2.20708 5.29933 2.04151 4.89962C1.87595 4.49991 1.83263 4.06007 1.91703 3.63574C2.00144 3.21141 2.20978 2.82163 2.51571 2.51571C2.82163 2.20978 3.21141 2.00144 3.63574 1.91703C4.06007 1.83263 4.49991 1.87595 4.89962 2.04151C5.29933 2.20708 5.64098 2.48746 5.88134 2.84719C6.12171 3.20692 6.25 3.62985 6.25 4.0625C6.24938 4.64247 6.01871 5.19851 5.60861 5.60861C5.19851 6.01871 4.64247 6.24938 4.0625 6.25ZM10 6.25C9.56735 6.25 9.14442 6.12171 8.78469 5.88134C8.42496 5.64098 8.14458 5.29933 7.97901 4.89962C7.81345 4.49991 7.77013 4.06007 7.85453 3.63574C7.93894 3.21141 8.14728 2.82163 8.45321 2.51571C8.75913 2.20978 9.14891 2.00144 9.57324 1.91703C9.99757 1.83263 10.4374 1.87595 10.8371 2.04151C11.2368 2.20708 11.5785 2.48746 11.8188 2.84719C12.0592 3.20692 12.1875 3.62985 12.1875 4.0625C12.1869 4.64247 11.9562 5.19851 11.5461 5.60861C11.136 6.01871 10.58 6.24938 10 6.25ZM15.9375 6.25C15.5049 6.25 15.0819 6.12171 14.7222 5.88134C14.3625 5.64098 14.0821 5.29933 13.9165 4.89962C13.7509 4.49991 13.7076 4.06007 13.792 3.63574C13.8764 3.21141 14.0848 2.82163 14.3907 2.51571C14.6966 2.20978 15.0864 2.00144 15.5107 1.91703C15.9351 1.83263 16.3749 1.87595 16.7746 2.04151C17.1743 2.20708 17.516 2.48746 17.7563 2.84719C17.9967 3.20692 18.125 3.62985 18.125 4.0625C18.1244 4.64247 17.8937 5.19851 17.4836 5.60861C17.0735 6.01871 16.5175 6.24938 15.9375 6.25ZM4.0625 12.1875C3.62985 12.1875 3.20692 12.0592 2.84719 11.8188C2.48746 11.5785 2.20708 11.2368 2.04151 10.8371C1.87595 10.4374 1.83263 9.99757 1.91703 9.57324C2.00144 9.14891 2.20978 8.75913 2.51571 8.45321C2.82163 8.14728 3.21141 7.93894 3.63574 7.85453C4.06007 7.77013 4.49991 7.81345 4.89962 7.97901C5.29933 8.14458 5.64098 8.42496 5.88134 8.78469C6.12171 9.14442 6.25 9.56735 6.25 10C6.24938 10.58 6.01871 11.136 5.60861 11.5461C5.19851 11.9562 4.64247 12.1869 4.0625 12.1875ZM10 12.1875C9.56735 12.1875 9.14442 12.0592 8.78469 11.8188C8.42496 11.5785 8.14458 11.2368 7.97901 10.8371C7.81345 10.4374 7.77013 9.99757 7.85453 9.57324C7.93894 9.14891 8.14728 8.75913 8.45321 8.45321C8.75913 8.14728 9.14891 7.93894 9.57324 7.85453C9.99757 7.77013 10.4374 7.81345 10.8371 7.97901C11.2368 8.14458 11.5785 8.42496 11.8188 8.78469C12.0592 9.14442 12.1875 9.56735 12.1875 10C12.1869 10.58 11.9562 11.136 11.5461 11.5461C11.136 11.9562 10.58 12.1869 10 12.1875ZM15.9375 12.1875C15.5049 12.1875 15.0819 12.0592 14.7222 11.8188C14.3625 11.5785 14.0821 11.2368 13.9165 10.8371C13.7509 10.4374 13.7076 9.99757 13.792 9.57324C13.8764 9.14891 14.0848 8.75913 14.3907 8.45321C14.6966 8.14728 15.0864 7.93894 15.5107 7.85453C15.9351 7.77013 16.3749 7.81345 16.7746 7.97901C17.1743 8.14458 17.516 8.42496 17.7563 8.78469C17.9967 9.14442 18.125 9.56735 18.125 10C18.1244 10.58 17.8937 11.136 17.4836 11.5461C17.0735 11.9562 16.5175 12.1869 15.9375 12.1875ZM4.0625 18.125C3.62985 18.125 3.20692 17.9967 2.84719 17.7563C2.48746 17.516 2.20708 17.1743 2.04151 16.7746C1.87595 16.3749 1.83263 15.9351 1.91703 15.5107C2.00144 15.0864 2.20978 14.6966 2.51571 14.3907C2.82163 14.0848 3.21141 13.8764 3.63574 13.792C4.06007 13.7076 4.49991 13.7509 4.89962 13.9165C5.29933 14.0821 5.64098 14.3625 5.88134 14.7222C6.12171 15.0819 6.25 15.5049 6.25 15.9375C6.24938 16.5175 6.01871 17.0735 5.60861 17.4836C5.19851 17.8937 4.64247 18.1244 4.0625 18.125ZM10 18.125C9.56735 18.125 9.14442 17.9967 8.78469 17.7563C8.42496 17.516 8.14458 17.1743 7.97901 16.7746C7.81345 16.3749 7.77013 15.9351 7.85453 15.5107C7.93894 15.0864 8.14728 14.6966 8.45321 14.3907C8.75913 14.0848 9.14891 13.8764 9.57324 13.792C9.99757 13.7076 10.4374 13.7509 10.8371 13.9165C11.2368 14.0821 11.5785 14.3625 11.8188 14.7222C12.0592 15.0819 12.1875 15.5049 12.1875 15.9375C12.1869 16.5175 11.9562 17.0735 11.5461 17.4836C11.136 17.8937 10.58 18.1244 10 18.125ZM15.9375 18.125C15.5049 18.125 15.0819 17.9967 14.7222 17.7563C14.3625 17.516 14.0821 17.1743 13.9165 16.7746C13.7509 16.3749 13.7076 15.9351 13.792 15.5107C13.8764 15.0864 14.0848 14.6966 14.3907 14.3907C14.6966 14.0848 15.0864 13.8764 15.5107 13.792C15.9351 13.7076 16.3749 13.7509 16.7746 13.9165C17.1743 14.0821 17.516 14.3625 17.7563 14.7222C17.9967 15.0819 18.125 15.5049 18.125 15.9375C18.1244 16.5175 17.8937 17.0735 17.4836 17.4836C17.0735 17.8937 16.5175 18.1244 15.9375 18.125Z" fill="#B77FFF"/>
</svg>
