<svg width="16" height="15" viewBox="0 0 16 15" fill="none" xmlns="http://www.w3.org/2000/svg">
<path d="M14 1.125H2C1.58579 1.125 1.25 1.44213 1.25 1.83333V5.375C1.25 5.7662 1.58579 6.08333 2 6.08333H14C14.4142 6.08333 14.75 5.7662 14.75 5.375V1.83333C14.75 1.44213 14.4142 1.125 14 1.125Z" stroke="#B77FFF" stroke-linecap="round" stroke-linejoin="round"/>
<path d="M7.25 8.91667H2C1.58579 8.91667 1.25 9.2338 1.25 9.625V13.1667C1.25 13.5579 1.58579 13.875 2 13.875H7.25C7.66421 13.875 8 13.5579 8 13.1667V9.625C8 9.2338 7.66421 8.91667 7.25 8.91667Z" stroke="#B77FFF" stroke-linecap="round" stroke-linejoin="round"/>
<path d="M14 8.91667H11.75C11.3358 8.91667 11 9.2338 11 9.625V13.1667C11 13.5579 11.3358 13.875 11.75 13.875H14C14.4142 13.875 14.75 13.5579 14.75 13.1667V9.625C14.75 9.2338 14.4142 8.91667 14 8.91667Z" stroke="#B77FFF" stroke-linecap="round" stroke-linejoin="round"/>
</svg>
