<svg width="21" height="21" viewBox="0 0 21 21" fill="none" xmlns="http://www.w3.org/2000/svg">
<path d="M12.4688 13.7812V15.4219C12.4688 15.857 12.2959 16.2743 11.9882 16.582C11.6805 16.8896 11.2632 17.0625 10.8281 17.0625H4.26562C3.8305 17.0625 3.4132 16.8896 3.10553 16.582C2.79785 16.2743 2.625 15.857 2.625 15.4219V5.57812C2.625 5.143 2.79785 4.7257 3.10553 4.41803C3.4132 4.11035 3.8305 3.9375 4.26562 3.9375H10.5C11.406 3.9375 12.4688 4.67209 12.4688 5.57812V7.21875M15.0938 13.7812L18.375 10.5L15.0938 7.21875M7.21875 10.5H17.7188" stroke="#C2ADEB" stroke-linecap="round" stroke-linejoin="round"/>
</svg>
