<svg width="32" height="32" viewBox="0 0 32 32" fill="none" xmlns="http://www.w3.org/2000/svg">
<path d="M31.4874 15.805C31.4874 7.21594 24.5239 0.252441 15.9349 0.252441C7.34583 0.252441 0.382324 7.21594 0.382324 15.805C0.382324 24.394 7.34583 31.3575 15.9349 31.3575C24.5239 31.3575 31.4874 24.394 31.4874 15.805ZM15.5872 22.6361C15.4756 22.5255 15.3869 22.3939 15.3262 22.249C15.2655 22.1041 15.2339 21.9486 15.2333 21.7915C15.2327 21.6344 15.263 21.4786 15.3226 21.3332C15.3821 21.1878 15.4698 21.0556 15.5804 20.9441L19.4925 17.0013H9.50449C9.1872 17.0013 8.8829 16.8753 8.65854 16.6509C8.43418 16.4266 8.30814 16.1223 8.30814 15.805C8.30814 15.4877 8.43418 15.1834 8.65854 14.959C8.8829 14.7347 9.1872 14.6086 9.50449 14.6086H19.4925L15.5804 10.6659C15.4698 10.5543 15.3822 10.4219 15.3227 10.2764C15.2632 10.1309 15.2329 9.97514 15.2336 9.81795C15.2343 9.66076 15.2659 9.50524 15.3267 9.36027C15.3875 9.21531 15.4763 9.08374 15.5879 8.97308C15.6996 8.86242 15.8319 8.77483 15.9774 8.71532C16.1229 8.6558 16.2787 8.62553 16.4359 8.62622C16.7534 8.62762 17.0573 8.75508 17.2808 8.98056L23.2169 14.9623C23.4393 15.1864 23.564 15.4893 23.564 15.805C23.564 16.1207 23.4393 16.4236 23.2169 16.6477L17.2808 22.6294C17.1701 22.7412 17.0384 22.8301 16.8934 22.8909C16.7483 22.9518 16.5927 22.9834 16.4354 22.984C16.2781 22.9846 16.1222 22.9542 15.9766 22.8946C15.8311 22.8349 15.6987 22.747 15.5872 22.6361Z" fill="#FF8F1F"/>
</svg>
