<svg width="25" height="14" viewBox="0 0 25 14" fill="none" xmlns="http://www.w3.org/2000/svg">
<path d="M23.3242 2.56782H1.38279C1.0595 2.56782 0.749447 2.4394 0.520846 2.21079C0.292245 1.98219 0.163818 1.67214 0.163818 1.34885C0.163818 1.02556 0.292245 0.715512 0.520846 0.486911C0.749447 0.258309 1.0595 0.129883 1.38279 0.129883H23.3242C23.6475 0.129883 23.9576 0.258309 24.1862 0.486911C24.4148 0.715512 24.5432 1.02556 24.5432 1.34885C24.5432 1.67214 24.4148 1.98219 24.1862 2.21079C23.9576 2.4394 23.6475 2.56782 23.3242 2.56782ZM19.261 8.25635H5.44602C5.12273 8.25635 4.81268 8.12792 4.58408 7.89932C4.35548 7.67072 4.22705 7.36067 4.22705 7.03738C4.22705 6.71409 4.35548 6.40404 4.58408 6.17544C4.81268 5.94683 5.12273 5.81841 5.44602 5.81841H19.261C19.5843 5.81841 19.8943 5.94683 20.1229 6.17544C20.3515 6.40404 20.48 6.71409 20.48 7.03738C20.48 7.36067 20.3515 7.67072 20.1229 7.89932C19.8943 8.12792 19.5843 8.25635 19.261 8.25635ZM14.3851 13.9449H10.3219C9.99861 13.9449 9.68856 13.8164 9.45996 13.5878C9.23135 13.3592 9.10293 13.0492 9.10293 12.7259C9.10293 12.4026 9.23135 12.0926 9.45996 11.864C9.68856 11.6354 9.99861 11.5069 10.3219 11.5069H14.3851C14.7084 11.5069 15.0185 11.6354 15.2471 11.864C15.4757 12.0926 15.6041 12.4026 15.6041 12.7259C15.6041 13.0492 15.4757 13.3592 15.2471 13.5878C15.0185 13.8164 14.7084 13.9449 14.3851 13.9449Z" fill="white"/>
</svg>
