<svg width="14" height="4" viewBox="0 0 14 4" fill="none" xmlns="http://www.w3.org/2000/svg">
<path d="M2.4 3.18C1.97 3.18 1.61 3.03 1.32 2.73C1.04 2.42 0.9 2.05 0.9 1.62C0.9 1.18 1.04 0.81 1.32 0.51C1.61 0.21 1.97 0.0599999 2.4 0.0599999C2.84 0.0599999 3.2 0.21 3.48 0.51C3.76 0.81 3.9 1.18 3.9 1.62C3.9 2.05 3.76 2.42 3.48 2.73C3.2 3.03 2.84 3.18 2.4 3.18ZM7.20469 3.18C6.77469 3.18 6.41469 3.03 6.12469 2.73C5.84469 2.42 5.70469 2.05 5.70469 1.62C5.70469 1.18 5.84469 0.81 6.12469 0.51C6.41469 0.21 6.77469 0.0599999 7.20469 0.0599999C7.64469 0.0599999 8.00469 0.21 8.28469 0.51C8.56469 0.81 8.70469 1.18 8.70469 1.62C8.70469 2.05 8.56469 2.42 8.28469 2.73C8.00469 3.03 7.64469 3.18 7.20469 3.18ZM12.0094 3.18C11.5794 3.18 11.2194 3.03 10.9294 2.73C10.6494 2.42 10.5094 2.05 10.5094 1.62C10.5094 1.18 10.6494 0.81 10.9294 0.51C11.2194 0.21 11.5794 0.0599999 12.0094 0.0599999C12.4494 0.0599999 12.8094 0.21 13.0894 0.51C13.3694 0.81 13.5094 1.18 13.5094 1.62C13.5094 2.05 13.3694 2.42 13.0894 2.73C12.8094 3.03 12.4494 3.18 12.0094 3.18Z" fill="white"/>
</svg>
